<svg width="24" height="24" viewBox="0 0 24 24" fill="none" xmlns="http://www.w3.org/2000/svg">
<path d="M7.8809 9.6621C8.17378 9.36961 8.64866 9.36944 8.94144 9.6621C9.23421 9.95487 9.23396 10.4297 8.94144 10.7226L6.66605 12.998C5.50308 14.161 5.50311 16.047 6.66605 17.21C7.79006 18.3339 9.59822 18.3768 10.7745 17.3076L13.3731 14.9453C13.6796 14.6671 14.1541 14.6898 14.4327 14.9961C14.7111 15.3024 14.6889 15.777 14.3828 16.0557L11.7842 18.418C10.0155 20.0258 7.29573 19.9607 5.60551 18.2705C3.85677 16.5217 3.85674 13.6863 5.60551 11.9375L7.8809 9.6621ZM12.2159 5.58202C13.9845 3.97418 16.7044 4.03934 18.3946 5.72948C20.143 7.47828 20.1432 10.3138 18.3946 12.0625L16.1192 14.3379C15.8264 14.6306 15.3516 14.6304 15.0586 14.3379C14.7657 14.045 14.7657 13.5702 15.0586 13.2773L17.334 11.0019C18.4969 9.83907 18.4966 7.95304 17.334 6.79003C16.21 5.6661 14.4018 5.62325 13.2256 6.69237L10.627 9.05468C10.3206 9.33318 9.8461 9.30999 9.56742 9.0039C9.28881 8.69743 9.3108 8.22297 9.61722 7.94433L12.2159 5.58202ZM13.2911 9.74511C13.5383 9.49797 13.9394 9.49792 14.1866 9.74511C14.4335 9.99232 14.4336 10.3935 14.1866 10.6406L10.5694 14.2568C10.3222 14.5038 9.92104 14.5038 9.67386 14.2568C9.42721 14.0097 9.42717 13.6094 9.67386 13.3623L13.2911 9.74511Z" fill="black"/>
</svg>
